<svg width="128" height="101" viewBox="0 0 128 101" fill="none" xmlns="http://www.w3.org/2000/svg">
<path d="M112.973 57.5293L116.566 66.1721L80.5319 81.153L61.1839 34.6146L96.3536 19.9931L99.9468 28.636L75.4809 38.8074L79.6822 48.9129L101.289 39.9299L104.772 48.3068L83.1648 57.2898L87.6425 68.0601L112.973 57.5293Z" fill="#EF483E"/>
<path d="M3.04688 77.5286V43.4036H15C19.1406 43.4036 22.2812 44.2005 24.4219 45.7942C26.5625 47.3723 27.6328 49.6927 27.6328 52.7552C27.6328 54.427 27.2031 55.9036 26.3438 57.1848C25.4844 58.4505 24.2891 59.3802 22.7578 59.9739C24.5078 60.4114 25.8828 61.2942 26.8828 62.6223C27.8984 63.9505 28.4062 65.5755 28.4062 67.4973C28.4062 70.7786 27.3594 73.263 25.2656 74.9505C23.1719 76.638 20.1875 77.4973 16.3125 77.5286H3.04688ZM10.0781 62.6692V71.8802H16.1016C17.7578 71.8802 19.0469 71.4895 19.9688 70.7083C20.9062 69.9114 21.375 68.8177 21.375 67.427C21.375 64.302 19.7578 62.7161 16.5234 62.6692H10.0781ZM10.0781 57.7005H15.2812C18.8281 57.638 20.6016 56.2239 20.6016 53.4583C20.6016 51.9114 20.1484 50.802 19.2422 50.1302C18.3516 49.4427 16.9375 49.0989 15 49.0989H10.0781V57.7005ZM40.4062 77.5286H33.6094V52.1692H40.4062V77.5286ZM33.2109 45.6067C33.2109 44.5911 33.5469 43.7552 34.2188 43.0989C34.9062 42.4427 35.8359 42.1145 37.0078 42.1145C38.1641 42.1145 39.0859 42.4427 39.7734 43.0989C40.4609 43.7552 40.8047 44.5911 40.8047 45.6067C40.8047 46.638 40.4531 47.4817 39.75 48.138C39.0625 48.7942 38.1484 49.1223 37.0078 49.1223C35.8672 49.1223 34.9453 48.7942 34.2422 48.138C33.5547 47.4817 33.2109 46.638 33.2109 45.6067ZM45.0234 64.6614C45.0234 60.7708 45.9453 57.638 47.7891 55.263C49.6484 52.888 52.1484 51.7005 55.2891 51.7005C58.0703 51.7005 60.2344 52.6536 61.7812 54.5598L62.0625 52.1692H68.2031V76.6848C68.2031 78.9036 67.6953 80.8333 66.6797 82.4739C65.6797 84.1145 64.2656 85.3645 62.4375 86.2239C60.6094 87.0833 58.4688 87.513 56.0156 87.513C54.1562 87.513 52.3438 87.138 50.5781 86.388C48.8125 85.6536 47.4766 84.7005 46.5703 83.5286L49.5703 79.4036C51.2578 81.2942 53.3047 82.2395 55.7109 82.2395C57.5078 82.2395 58.9062 81.7552 59.9062 80.7864C60.9062 79.8333 61.4062 78.4739 61.4062 76.7083V75.3489C59.8438 77.1145 57.7891 77.9973 55.2422 77.9973C52.1953 77.9973 49.7266 76.8098 47.8359 74.4348C45.9609 72.0442 45.0234 68.8802 45.0234 64.9427V64.6614ZM51.7969 65.1536C51.7969 67.4505 52.2578 69.2552 53.1797 70.5677C54.1016 71.8645 55.3672 72.513 56.9766 72.513C59.0391 72.513 60.5156 71.7395 61.4062 70.1927V59.5286C60.5 57.9817 59.0391 57.2083 57.0234 57.2083C55.3984 57.2083 54.1172 57.8723 53.1797 59.2005C52.2578 60.5286 51.7969 62.513 51.7969 65.1536Z" fill="#171E4B"/>
</svg>
